<?xml version="1.0" standalone="no"?>
<!DOCTYPE svg PUBLIC "-//W3C//DTD SVG 20010904//EN"
 "http://www.w3.org/TR/2001/REC-SVG-20010904/DTD/svg10.dtd">
<svg version="1.0" xmlns="http://www.w3.org/2000/svg"
 width="1200.000000pt" height="1200.000000pt" viewBox="0 0 1200.000000 1200.000000"
 preserveAspectRatio="xMidYMid meet">
<metadata>
Created by potrace 1.11, written by Peter Selinger 2001-2013
</metadata>
<g transform="translate(0.000000,1200.000000) scale(0.100000,-0.100000)"
fill="#000000" stroke="none">
<path d="M295 9323 c-33 -9 -62 -19 -65 -23 -3 -4 -19 -14 -36 -23 -65 -34
-153 -144 -170 -213 -4 -16 -10 -33 -14 -39 -11 -15 -9 -151 2 -193 14 -52 59
-142 71 -142 6 0 8 -3 4 -6 -16 -16 140 -127 197 -141 126 -30 197 -24 295 23
63 31 181 145 181 175 0 10 4 19 8 19 13 0 35 92 38 162 4 110 -43 229 -121
304 -45 42 -161 108 -175 99 -5 -3 -11 -1 -14 3 -9 15 -138 12 -201 -5z"/>
<path d="M6117 9330 c-307 -78 -415 -462 -191 -685 83 -83 190 -125 306 -120
50 2 156 30 168 44 3 3 18 13 34 21 40 21 119 110 145 164 96 206 9 449 -196
547 -51 24 -80 31 -146 34 -45 2 -99 0 -120 -5z"/>
<path d="M9226 7813 c-2 -3 -23 -5 -151 -19 -57 -5 -230 -39 -290 -56 -22 -7
-42 -12 -45 -13 -163 -39 -461 -167 -635 -273 -112 -67 -285 -191 -285 -203 0
-5 -4 -9 -9 -9 -28 0 -291 -263 -394 -395 -84 -107 -196 -285 -266 -422 -52
-101 -111 -229 -111 -239 0 -3 -6 -20 -14 -37 -29 -65 -87 -255 -101 -332 -2
-11 -6 -31 -9 -45 -15 -76 -29 -160 -32 -200 -1 -25 -4 -45 -4 -45 -13 0 -19
-417 -8 -530 9 -88 34 -239 48 -285 6 -19 13 -51 16 -70 5 -32 26 -101 41
-140 3 -8 8 -22 10 -30 28 -110 146 -376 223 -505 17 -27 33 -57 37 -65 18
-40 170 -250 253 -350 66 -80 246 -258 320 -318 36 -29 72 -59 81 -66 9 -7 45
-33 80 -56 35 -24 66 -47 67 -52 2 -4 8 -8 13 -8 5 0 38 -18 74 -40 75 -46
224 -122 293 -149 26 -11 65 -27 87 -37 22 -10 46 -19 53 -20 7 -1 45 -14 85
-28 83 -29 217 -63 285 -72 26 -3 50 -8 53 -10 4 -2 28 -6 55 -9 27 -3 83 -9
124 -14 41 -4 152 -6 245 -4 233 5 265 7 265 16 0 5 3 6 8 4 6 -4 125 12 197
28 17 3 44 8 60 11 60 10 236 55 292 75 32 11 67 22 79 24 56 13 226 90 379
173 113 62 190 116 253 179 l44 43 276 -276 276 -276 223 -2 c123 0 223 0 223
1 0 1 -171 174 -380 383 l-379 380 62 58 c34 31 80 79 102 105 22 27 47 56 56
65 21 22 157 230 196 302 44 80 67 124 68 130 0 3 8 21 17 40 41 88 124 305
133 350 2 8 4 16 5 18 2 1 4 7 5 12 1 6 3 11 5 13 7 9 44 174 65 292 57 321
60 567 9 855 -8 47 -18 99 -20 115 -7 35 -42 173 -51 195 -3 8 -8 21 -10 28
-1 6 -5 18 -6 25 -2 6 -7 19 -10 27 -4 8 -16 42 -27 75 -61 174 -194 427 -318
605 -25 36 -48 67 -51 70 -3 3 -19 23 -36 45 -16 22 -40 53 -55 69 -57 64
-197 211 -219 230 -13 12 -40 37 -61 56 -20 19 -54 48 -76 65 -21 16 -43 33
-49 37 -57 44 -78 59 -132 96 -33 23 -66 42 -72 42 -6 0 -11 3 -11 8 0 4 -10
12 -23 18 -12 6 -60 31 -107 55 -47 25 -114 58 -150 73 -36 15 -74 31 -85 36
-19 9 -132 48 -200 70 -53 16 -234 58 -285 65 -14 2 -25 4 -25 5 0 1 -11 3
-25 5 -88 11 -141 17 -185 21 -57 6 -434 12 -439 7z m422 -327 c40 -4 83 -9
95 -12 12 -2 49 -9 82 -15 33 -6 90 -19 128 -29 37 -10 68 -19 70 -18 6 1 126
-36 152 -48 17 -7 55 -22 85 -34 50 -20 246 -115 295 -144 72 -41 208 -135
295 -203 32 -26 286 -279 314 -313 152 -187 280 -399 361 -600 14 -36 30 -74
35 -85 15 -33 63 -198 74 -256 2 -8 5 -21 8 -29 7 -19 28 -134 33 -180 2 -19
6 -57 10 -85 10 -72 6 -390 -4 -390 -1 0 -4 -27 -6 -60 -2 -33 -9 -85 -15
-115 -6 -30 -13 -71 -16 -90 -4 -28 -30 -131 -59 -240 -52 -197 -235 -583
-320 -676 -5 -7 -17 -20 -25 -31 -63 -79 -94 -115 -139 -160 l-52 -52 -289
288 -289 288 -215 0 c-119 1 -216 -1 -216 -4 0 -3 171 -176 380 -385 209 -209
380 -383 380 -387 0 -3 -32 -28 -71 -56 -38 -27 -76 -54 -82 -60 -7 -5 -22
-15 -32 -22 -22 -14 -245 -123 -250 -123 -2 0 -16 -5 -32 -12 -15 -6 -30 -12
-33 -13 -3 -1 -12 -4 -20 -8 -115 -44 -343 -105 -460 -123 -74 -11 -96 -14
-142 -19 -27 -3 -72 -8 -100 -11 -56 -7 -299 -6 -358 1 -19 2 -60 6 -90 9 -30
3 -66 9 -80 12 -14 3 -38 8 -55 11 -86 13 -314 76 -395 110 -19 8 -44 19 -55
23 -64 24 -193 91 -279 142 -187 113 -260 170 -416 327 -108 109 -134 138
-209 236 -17 22 -34 45 -39 50 -4 6 -17 25 -27 43 -11 17 -23 32 -27 32 -4 0
-8 4 -8 9 0 5 -16 33 -35 62 -19 30 -35 59 -35 65 0 7 -3 14 -8 16 -9 4 -95
176 -123 248 -11 30 -26 66 -32 80 -5 14 -12 34 -14 45 -1 11 -7 29 -13 40
-17 36 -72 242 -85 320 -2 11 -9 47 -14 80 -11 59 -23 236 -24 325 0 48 13
254 18 280 1 8 6 35 10 60 4 25 9 56 12 70 6 37 43 183 50 200 3 8 7 17 8 20
14 55 85 239 103 268 8 12 12 22 9 22 -7 0 101 200 119 221 8 8 14 19 14 24 0
4 11 23 25 41 14 18 25 36 25 39 0 4 33 48 74 98 151 187 430 441 581 528 22
13 42 26 45 30 11 15 233 129 335 172 186 78 425 138 605 153 41 3 76 7 77 8
5 5 314 -2 381 -8z"/>
<path d="M4826 6223 l-1576 -1577 -1020 1024 c-1696 1703 -2083 2089 -2089
2085 -3 -1 -6 -1148 -6 -2547 l0 -2543 148 -3 c81 -1 147 1 148 5 0 5 2 793 4
1753 2 960 4 1750 5 1755 1 6 2 12 1 15 -6 15 -3 178 2 188 4 6 3 13 -2 17 -6
3 -7 15 -1 29 5 13 4 29 -1 37 -5 8 -7 21 -4 29 5 18 6 46 5 197 -1 62 1 117
5 123 3 5 1 10 -6 10 -9 0 -10 3 -2 11 6 6 8 23 3 44 -4 18 -4 38 0 45 4 6 5
24 3 38 -5 34 -5 103 -1 107 2 2 637 -630 1412 -1406 774 -775 1410 -1409
1412 -1409 3 0 314 310 692 690 1599 1604 2133 2140 2141 2145 5 2 9 -984 9
-2193 0 -1208 1 -2205 1 -2215 1 -16 13 -17 149 -15 l147 3 0 2568 c0 1412 -1
2567 -1 2567 -1 0 -711 -710 -1578 -1577z"/>
</g>
</svg>
